<?xml version="1.0" encoding="UTF-8" standalone="no"?>
<svg
   width="26"
   height="33"
   viewBox="0 0 26 33"
   fill="none"
   version="1.1"
   id="svg11"
   sodipodi:docname="1b4fbb6bdb9d7ac6b47e05d16832e191.svg"
   xmlns:inkscape="http://www.inkscape.org/namespaces/inkscape"
   xmlns:sodipodi="http://sodipodi.sourceforge.net/DTD/sodipodi-0.dtd"
   xmlns="http://www.w3.org/2000/svg"
   xmlns:svg="http://www.w3.org/2000/svg">
  <sodipodi:namedview
     id="namedview13"
     pagecolor="#ffffff"
     bordercolor="#666666"
     borderopacity="1.0"
     inkscape:pageshadow="2"
     inkscape:pageopacity="0.0"
     inkscape:pagecheckerboard="0" />
  <path
     d="M25.5633 15.3136C25.5714 15.0546 25.6227 12.7583 24.7758 11.884C24.6516 11.7544 24.4992 11.6551 24.3305 11.5938V5.3594C24.3301 5.34225 24.3286 5.32514 24.3261 5.30819C24.3264 5.30448 24.3264 5.30076 24.3261 5.29705C24.3205 5.26349 24.3105 5.2308 24.2964 5.19983C24.2962 5.19735 24.2962 5.19488 24.2964 5.19241C24.2812 5.16197 24.2622 5.13355 24.24 5.1078L24.234 5.10112C24.2229 5.08899 24.211 5.07759 24.1984 5.06698C24.1852 5.05618 24.1713 5.04626 24.1568 5.03729L24.1479 5.03135C24.133 5.02226 24.1173 5.01432 24.1012 5.0076L12.3716 0.0297495C12.3246 0.0101118 12.2742 0 12.2232 0C12.1722 0 12.1218 0.0101118 12.0748 0.0297495L0.351914 5.00834C0.282876 5.03767 0.223994 5.08667 0.182602 5.14922C0.141211 5.21178 0.119141 5.28513 0.119141 5.36014C0.119141 5.43515 0.141211 5.5085 0.182602 5.57106C0.223994 5.63361 0.282876 5.68261 0.351914 5.71194L5.1598 7.75444V14.4712C5.15971 14.5214 5.1695 14.5711 5.18863 14.6174C5.20776 14.6638 5.23584 14.706 5.27128 14.7415C5.30671 14.777 5.3488 14.8051 5.39513 14.8244C5.44146 14.8436 5.49113 14.8535 5.54129 14.8535C4.43364 15.9087 3.59151 17.2111 3.08378 18.6542C2.57605 20.0974 2.41715 21.6402 2.62006 23.1565C2.82298 24.6728 3.38195 26.1196 4.25125 27.3784C5.12056 28.6373 6.27551 29.6725 7.62164 30.3993V32.496C7.62184 32.5973 7.66217 32.6944 7.73381 32.7661C7.80545 32.8377 7.90255 32.878 8.00387 32.8782H16.4373C16.4876 32.8782 16.5374 32.8683 16.5838 32.8491C16.6302 32.8298 16.6724 32.8016 16.7079 32.766C16.7434 32.7304 16.7715 32.6882 16.7907 32.6418C16.8099 32.5953 16.8197 32.5455 16.8196 32.4953C16.8197 32.4668 16.8165 32.4384 16.8099 32.4106V30.4067C18.1584 29.6814 19.3159 28.6469 20.1875 27.388C21.059 26.1291 21.6199 24.6815 21.8241 23.164C22.0283 21.6465 21.87 20.1022 21.3623 18.6577C20.8545 17.2131 20.0117 15.9094 18.9029 14.8535C18.953 14.8535 19.0027 14.8436 19.049 14.8244C19.0954 14.8051 19.1375 14.777 19.1729 14.7415C19.2083 14.706 19.2364 14.6638 19.2555 14.6174C19.2747 14.5711 19.2845 14.5214 19.2844 14.4712V7.75369L23.5623 5.94053V11.596C23.3936 11.6572 23.2412 11.7565 23.117 11.8862C22.2702 12.7605 22.3207 15.0568 22.3296 15.3158C22.3325 15.4153 22.374 15.5097 22.4454 15.5789C22.5168 15.6482 22.6123 15.687 22.7118 15.6869H25.184C25.2834 15.6862 25.3785 15.6468 25.4493 15.5771C25.5201 15.5074 25.561 15.4129 25.5633 15.3136ZM12.2232 0.797171L22.0668 4.97569H12.2232C12.1218 4.97569 12.0246 5.01596 11.9529 5.08764C11.8812 5.15932 11.841 5.25654 11.841 5.35791C11.841 5.45929 11.8812 5.55651 11.9529 5.62819C12.0246 5.69987 12.1218 5.74014 12.2232 5.74014H22.0668L18.8086 7.12803C18.772 7.13725 18.7369 7.15202 18.7047 7.17182L12.2232 9.92311L5.74168 7.17034C5.70937 7.15056 5.67438 7.13556 5.63777 7.1258L1.48152 5.36014L12.2232 0.797171ZM10.0516 22.9663C9.11195 22.714 8.395 22.285 7.98309 21.709C7.61867 21.1984 7.53777 20.6024 7.74781 19.9857C7.87844 19.6049 8.07437 19.5404 8.20648 19.5404C8.23988 19.5408 8.27317 19.5443 8.30594 19.5508C9.01769 19.6688 10.0516 20.9424 10.0516 22.668V22.9663ZM13.6334 32.113H10.813V23.8955C11.747 24.021 12.6935 24.021 13.6274 23.8955L13.6334 32.113ZM21.1495 21.8708C21.1538 23.5214 20.6985 25.1406 19.8345 26.547C18.9705 27.9534 17.732 29.0915 16.2577 29.8338C16.1947 29.8658 16.1417 29.9146 16.1048 29.9749C16.0678 30.0351 16.0483 30.1045 16.0484 30.1752V32.1145H14.3948V23.753C15.6046 23.4621 16.5435 22.9136 17.0853 22.1551C17.5922 21.4448 17.7117 20.5876 17.4215 19.7393C17.1832 19.0446 16.657 18.6921 16.0113 18.8004C14.8832 18.9882 13.6267 20.6247 13.6267 22.6724V23.1259C12.6933 23.2587 11.7457 23.2587 10.8123 23.1259V22.6724C10.8123 20.6247 9.55578 18.9882 8.42766 18.8004C7.78418 18.6935 7.25871 19.0446 7.0175 19.7393C6.7273 20.5876 6.8468 21.4463 7.35445 22.1551C7.89625 22.9136 8.83512 23.4621 10.0449 23.753V32.113H8.39055V30.167C8.39066 30.0965 8.37123 30.0273 8.33442 29.9672C8.2976 29.9071 8.24484 29.8583 8.18199 29.8263C6.84558 29.147 5.70185 28.1419 4.85636 26.9038C4.01088 25.6658 3.49088 24.2348 3.34437 22.7428C3.19786 21.2507 3.42956 19.7459 4.01808 18.367C4.60661 16.9882 5.53299 15.7798 6.71172 14.8535H17.7362C18.8022 15.6853 19.6637 16.7499 20.2548 17.966C20.8459 19.1821 21.1509 20.5173 21.1465 21.8694L21.1495 21.8708ZM14.3956 22.9678V22.6709C14.3956 20.9453 15.4295 19.6717 16.1412 19.5537C16.174 19.5472 16.2073 19.5438 16.2407 19.5433C16.3728 19.5433 16.5687 19.6049 16.6986 19.9887C16.9101 20.6054 16.8285 21.2014 16.4641 21.712C16.0514 22.285 15.3345 22.714 14.3948 22.9663L14.3956 22.9678ZM18.5229 14.0905H5.92426V8.07877L12.0748 10.6905C12.1217 10.7104 12.1722 10.7207 12.2232 10.7207C12.2742 10.7207 12.3247 10.7104 12.3716 10.6905L18.5214 8.07877L18.5229 14.0905ZM23.0888 14.921C23.1037 14.0504 23.2558 12.8377 23.6633 12.4176C23.726 12.3464 23.8115 12.2992 23.9052 12.284H23.9446H23.9846C24.0782 12.2995 24.1636 12.3467 24.2266 12.4176C24.6341 12.8377 24.7862 14.0504 24.8011 14.921H23.0888Z"
     fill="url(#paint0_linear_991_2826)"
     id="path2" />
  <defs
     id="defs9">
    <linearGradient
       id="paint0_linear_991_2826"
       x1="12.8429"
       y1="0"
       x2="12.8429"
       y2="32.8782"
       gradientUnits="userSpaceOnUse">
      <stop
         stop-color="#A0A0A0"
         id="stop4" />
      <stop
         offset="1"
         stop-color="#4D4D4D"
         id="stop6" />
    </linearGradient>
  </defs>
</svg>
